<svg width="105" height="106" viewBox="0 0 105 106" fill="none" xmlns="http://www.w3.org/2000/svg">
<path d="M94.5 0.0098114H10.5C4.70101 0.0098114 0 4.71082 0 10.5098V36.7598C0 42.5588 4.70101 47.2598 10.5 47.2598H94.5C100.299 47.2598 105 42.5588 105 36.7598V10.5098C105 4.71082 100.299 0.0098114 94.5 0.0098114Z" fill="#F9A619"/>
<path d="M94.5 57.7598H68.25C62.451 57.7598 57.75 62.4608 57.75 68.2598V94.5098C57.75 100.309 62.451 105.01 68.25 105.01H94.5C100.299 105.01 105 100.309 105 94.5098V68.2598C105 62.4608 100.299 57.7598 94.5 57.7598Z" fill="#3B85DB"/>
<path d="M23.62 105.01C36.665 105.01 47.24 94.4348 47.24 81.3898C47.24 68.3448 36.665 57.7698 23.62 57.7698C10.575 57.7698 0 68.3448 0 81.3898C0 94.4348 10.575 105.01 23.62 105.01Z" fill="#EB3669"/>
</svg>
